<svg xmlns="http://www.w3.org/2000/svg" fill="none" viewBox="0 0 205 56" height="56" width="205">
<g id="Hometap/Wordmark">
<g id="Hometap/Logomark">
<g id="logomark">
<path fill="#9BEABB" d="M46.8256 41.8911L46.6373 41.9853L46.0256 42.2206C40.1903 43.7739 34.2138 44.527 28.1903 44.527C21.7903 44.6211 15.4373 43.7268 9.3197 41.9382L9.17852 41.8911L1.60205 37.3255C4.42558 45.2801 10.6844 51.5402 18.6844 54.4114C24.7079 56.5295 31.2962 56.5295 37.3197 54.4114C45.2726 51.5873 51.5785 45.3272 54.4021 37.3255L46.8256 41.8911Z" id="Vector"></path>
<path fill="#40C089" d="M56.0021 28.0059L52.3786 33.1364L46.6374 41.9853L37.2727 54.4114C45.2256 51.5873 51.5315 45.3272 54.3551 37.3255C55.4845 34.3602 56.0021 31.2066 56.0021 28.0059Z" id="Vector_2"></path>
<path fill="#39C564" d="M9.31972 41.9853L3.6256 33.1364L0.0020752 28.0059C0.0020752 31.2066 0.519722 34.3602 1.60208 37.3255C4.4256 45.2801 10.6844 51.5402 18.6844 54.4114L9.31972 41.9853Z" id="Vector_3"></path>
<path fill="#00C5FF" d="M7.15502 9.3196C2.54325 14.4501 0.0020752 21.1338 0.0020752 28.0059C0.0020752 31.2066 0.519722 34.3602 1.60207 37.3255C3.15502 41.7499 5.83737 45.7037 9.31972 48.8573V7.15444C8.56678 7.8134 7.8609 8.5665 7.15502 9.3196Z" id="Vector_4"></path>
<path fill="#AEE4FF" d="M56.0021 28.0059C56.0021 20.0513 52.6139 12.4732 46.6844 7.15444V48.8573C50.1668 45.7037 52.8492 41.7499 54.4021 37.3255C55.4845 34.3602 56.0021 31.2066 56.0021 28.0059Z" id="Vector_5"></path>
<path fill="#C7A2FB" d="M54.402 18.6863C51.5784 10.7317 45.3196 4.42445 37.3196 1.60033C31.2961 -0.517761 24.7079 -0.517761 18.6843 1.60033L28.002 8.18995L46.6373 21.4163L55.9549 28.0059C56.002 24.8052 55.4373 21.6516 54.402 18.6863Z" id="Vector_6"></path>
<path fill="#39C564" d="M28.002 49.987L18.6843 54.4114C24.7079 56.5295 31.2961 56.5295 37.3196 54.4114L28.002 49.987Z" id="Vector_7"></path>
<path fill="#3E4DE9" d="M28.0021 0C24.8491 0 21.6962 0.564825 18.6844 1.60034C7.48443 5.55411 0.0020752 16.1446 0.0020752 28.0059L9.31972 21.4163L28.0021 8.18996L37.3197 1.60034C34.308 0.564825 31.155 0 28.0021 0Z" id="Vector_8"></path>
<path fill="#366CED" d="M9.31982 7.15444V21.4163L18.6845 1.60033C15.2492 2.82412 12.0492 4.70687 9.31982 7.15444Z" id="Vector_9"></path>
<path fill="#0054ED" d="M7.15502 9.3196C2.54325 14.4501 0.0020752 21.1338 0.0020752 28.0059L9.31972 21.4163V7.15444C8.56678 7.8134 7.8609 8.5665 7.15502 9.3196Z" id="Vector_10"></path>
<path fill="#4F79ED" d="M18.6845 1.60033L9.31982 21.4163L28.0022 8.18995L18.6845 1.60033Z" id="Vector_11"></path>
<path fill="#00A2BB" d="M0.0020752 28.0059C0.0020752 31.2066 0.519722 34.3602 1.60207 37.3255L3.6256 33.0893L0.0020752 28.0059Z" id="Vector_12"></path>
<path fill="#39C564" d="M9.31982 41.9853V48.9044C12.0492 51.352 15.2022 53.2347 18.6845 54.4585L9.31982 41.9853Z" id="Vector_13"></path>
<path fill="#00B5BB" d="M3.62558 33.1364L1.60205 37.3726L9.3197 41.9853L3.62558 33.1364Z" id="Vector_14"></path>
<path fill="#00A689" d="M9.17852 41.8911L1.60205 37.3255C3.15499 41.7499 5.83735 45.7037 9.3197 48.8573V41.9853L9.17852 41.8911Z" id="Vector_15"></path>
<path fill="#00B0FF" d="M0.0020752 28.0059L3.6256 33.1364L9.31972 21.4163L0.0020752 28.0059Z" id="Vector_16"></path>
<path fill="#00C5FF" d="M9.31973 21.4163L3.62561 33.1364L9.31973 41.9853V21.4163Z" id="Vector_17"></path>
<path fill="#5ED789" d="M9.31982 41.9853L18.6845 54.4114L28.0022 49.987L9.31982 41.9853Z" id="Vector_18"></path>
<path fill="#5385B8" d="M56.0021 28.0059C56.0021 31.2066 55.4844 34.3602 54.4021 37.3255L52.3785 33.0893L56.0021 28.0059Z" id="Vector_19"></path>
<path fill="#9B67F7" d="M46.6845 7.15444V21.4163L37.3198 1.60033C40.7551 2.82412 43.9551 4.70687 46.6845 7.15444Z" id="Vector_20"></path>
<path fill="#39C564" d="M46.6845 41.9853V48.9044C43.9551 51.352 40.8022 53.2347 37.3198 54.4585L46.6845 41.9853Z" id="Vector_21"></path>
<path fill="#6A5CF7" d="M48.8492 9.3196C53.4609 14.4501 56.0021 21.0868 56.0021 28.0059L46.6844 21.4163V7.15444C47.4374 7.8134 48.1433 8.5665 48.8492 9.3196Z" id="Vector_22"></path>
<path fill="#6AD1BB" d="M52.3786 33.1364L54.4021 37.3726L46.6844 41.9853L52.3786 33.1364Z" id="Vector_23"></path>
<path fill="#40C089" d="M46.8256 41.8912L54.4021 37.3726C52.8492 41.797 50.1668 45.7508 46.6844 48.9044V41.9853L46.8256 41.8912Z" id="Vector_24"></path>
<path fill="#8891FB" d="M56.0021 28.0059L52.3786 33.1364L46.6844 21.4163L56.0021 28.0059Z" id="Vector_25"></path>
<path fill="#AEE4FF" d="M46.6844 21.4163L52.3786 33.1364L46.6844 41.9853V21.4163Z" id="Vector_26"></path>
<path fill="#C7A2FB" d="M37.3197 1.60033L46.6844 21.4163L28.0021 8.18995L37.3197 1.60033Z" id="Vector_27"></path>
<path fill="#5ED789" d="M46.6844 41.9853L37.3197 54.4114L28.0021 49.987L46.6844 41.9853Z" id="Vector_28"></path>
<path fill="#9BEABB" d="M28.2374 44.527C21.8374 44.6211 15.4845 43.7268 9.36682 41.9382V41.9853L28.0492 49.987L46.308 42.1736C40.3786 43.7268 34.308 44.527 28.2374 44.527Z" id="Vector_29"></path>
</g>
</g>
<g id="Wordmark">
<path fill="#434C5E" d="M195.9 39.72C193.66 39.72 191.56 38.88 190.393 37.34V45.0867L186.94 46.3V22.92H190.393V25.2067C191.747 23.5267 193.707 22.5467 195.853 22.5933C200.147 22.5933 204.02 25.9067 204.02 31.1333C204.02 36.4067 200.053 39.72 195.9 39.72ZM175.6 36.5C178.54 36.5 180.78 34.0733 180.78 31.1333C180.687 28.24 178.26 26.0467 175.46 26.14C172.613 26.2333 170.373 28.66 170.467 31.46C170.513 34.26 172.8 36.5 175.6 36.5ZM195.573 36.5C198.513 36.5 200.753 34.0733 200.753 31.1333C200.66 28.24 198.233 26.0467 195.433 26.0933C192.587 26.1867 190.347 28.6133 190.44 31.4133C190.487 34.26 192.773 36.5 195.573 36.5ZM175.087 39.6733C170.933 39.6733 166.967 36.36 166.967 31.1333C166.967 25.9067 170.84 22.5933 175.133 22.5933C177.233 22.5467 179.193 23.48 180.547 25.0667V22.92H184.047V39.3467H180.547V37.1067C179.193 38.74 177.233 39.6733 175.087 39.6733Z" id="Vector_30"></path>
<path fill="#434C5E" d="M158.427 17.18L161.88 15.92V22.9667H165.287V26.1866H161.88V32.8133C161.88 35.8 162.347 36.2666 165.287 36.2666V39.6267H164.773C159.92 39.6267 158.427 38.04 158.427 32.8133V26.14H155.767V22.92H158.473L158.427 17.18Z" id="Vector_31"></path>
<path fill="#434C5E" d="M146.387 25.6733C144.053 25.6267 142 27.12 141.347 29.36H151.24C150.773 27.0267 148.953 25.6733 146.387 25.6733ZM151.1 34.12L154.273 35.24C152.827 37.9467 150.213 39.72 146.527 39.72C141.3 39.72 137.8 36.0333 137.8 31.2733C137.707 26.6067 141.487 22.78 146.153 22.64C146.247 22.64 146.34 22.64 146.387 22.64C151.24 22.64 154.88 26.14 154.88 30.9933V32.3467H141.207C141.673 34.8667 143.68 36.5467 146.527 36.5467C148.393 36.5933 150.12 35.7067 151.1 34.12Z" id="Vector_32"></path>
<path fill="#434C5E" d="M109.473 39.4867V23.1533H112.973V25.1133C114.093 23.62 115.913 22.7333 117.827 22.8267C120.44 22.8267 122.307 23.9467 123.287 25.7667C124.5 23.9 126.6 22.78 128.887 22.8267C133.367 22.8267 135.7 25.4867 135.7 29.6867V39.4867H132.107V29.92C132.107 27.4467 130.753 25.86 128.28 25.86C126.087 25.86 124.36 27.3533 124.36 30.2933V39.4867H120.767V29.7333C120.767 27.3533 119.413 25.86 117.033 25.86C114.7 25.86 112.973 27.4 112.973 30.3867V39.4867H109.473Z" id="Vector_33"></path>
<path fill="#434C5E" d="M98.5068 36.4067C101.4 36.2667 103.687 33.84 103.547 30.9467C103.407 28.1933 101.26 26.0467 98.5068 25.9067C95.6601 25.9067 93.5134 28.2867 93.5134 31.1333C93.4668 34.0267 95.6601 36.4067 98.5068 36.4067ZM98.5068 39.6733C93.7934 39.6733 89.9668 35.8933 89.9201 31.18C89.8734 26.4667 93.7001 22.64 98.4134 22.5933C103.127 22.5933 106.953 26.3733 107 31.0867C107 31.0867 107 31.0867 107 31.1333C107.047 35.8 103.313 39.6267 98.6468 39.6733C98.5534 39.6733 98.5534 39.6733 98.5068 39.6733Z" id="Vector_34"></path>
<path fill="#434C5E" d="M72 39.2533V16.76L75.5467 15.5V24.6467C76.8067 23.06 78.6733 22.1733 80.68 22.1733C84.88 22.1733 87.4467 24.9267 87.4467 29.4533V39.2067H83.8067V29.8733C83.8067 27.0733 82.4533 25.3933 79.7467 25.3933C77.3667 25.3933 75.5467 27.1667 75.5467 30.1533V39.3H72V39.2533Z" id="Vector_35"></path>
</g>
</g>
</svg>
